<?xml version="1.0" encoding="UTF-8" standalone="no"?>
<svg width="384px" height="384px" viewBox="0 0 384 384" version="1.1" xmlns="http://www.w3.org/2000/svg" xmlns:xlink="http://www.w3.org/1999/xlink">
    <!-- Generator: Sketch 3.8.1 (29687) - http://www.bohemiancoding.com/sketch -->
    <title>app-icon-384</title>
    <desc>Created with Sketch.</desc>
    <defs></defs>
    <g id="Page-1" stroke="none" stroke-width="1" fill="none" fill-rule="evenodd">
        <g id="app-icon" transform="translate(0.000000, -561.000000)">
            <g id="app-icon-384" transform="translate(0.000000, 561.000000)">
                <circle id="Oval-126" fill="#FFFFFF" cx="192" cy="192" r="192"></circle>
                <path d="M164.634053,195.776593 C160.816314,189.376593 156.804452,182.981155 152.579981,176.613086 C150.962294,174.172602 149.316877,171.786857 147.666837,169.39655 C120.138442,129.495766 88.5704536,96.8388881 57.3629783,73.9895652 C28.6421176,105.122851 11.1295104,146.501611 11.1295104,191.926557 C11.1295104,288.702038 90.622604,367.153357 188.67749,367.153357 C197.865947,367.153357 206.888013,366.464547 215.702091,365.137106 C219.053012,319.383721 201.295441,257.267684 164.634053,195.776593 Z" id="Fill-1" fill="#27A7D7"></path>
                <path d="M229.113171,21.3161511 C248.100183,55.8752388 264.166117,94.298047 275.831945,134.951504 C277.412655,140.461981 278.93328,146.004391 280.352222,151.592416 C281.364431,155.583863 282.284201,159.543378 283.194727,163.498332 C298.396354,229.660556 299.061917,290.020356 287.627187,337.429622 C335.030011,305.967897 366.22362,252.54181 366.22362,191.926557 C366.22362,108.886215 307.67725,39.384861 229.113171,21.3161511" id="Fill-4" fill="#6FBF57"></path>
                <path d="M195.201849,143.247327 C178.858597,143.247327 165.61206,130.173628 165.61206,114.043621 C165.61206,97.9136137 178.858597,84.8353528 195.201849,84.8353528 C211.5451,84.8353528 224.791638,97.9136137 224.791638,114.043621 C224.791638,130.173628 211.5451,143.247327 195.201849,143.247327 M196.482132,16.8895225 C193.889212,16.7800428 191.29167,16.697933 188.675641,16.697933 C144.794751,16.697933 104.657648,32.4401996 73.6766491,58.4735567 C107.976216,84.2742694 142.100148,120.502922 171.292449,164.52288 C173.363087,164.071276 175.419859,163.64248 177.499741,163.177192 C203.396584,157.32459 228.244242,150.541411 251.70069,143.069423 C238.181457,96.9328582 218.9957,53.9620813 196.482132,16.8895225" id="Fill-6" fill="#6BC8C6"></path>
            </g>
        </g>
    </g>
</svg>