<?xml version="1.0" encoding="UTF-8" standalone="no"?>
<svg width="192px" height="192px" viewBox="0 0 192 192" version="1.1" xmlns="http://www.w3.org/2000/svg" xmlns:xlink="http://www.w3.org/1999/xlink">
    <!-- Generator: Sketch 3.8.1 (29687) - http://www.bohemiancoding.com/sketch -->
    <title>app-icon-192</title>
    <desc>Created with Sketch.</desc>
    <defs></defs>
    <g id="Page-1" stroke="none" stroke-width="1" fill="none" fill-rule="evenodd">
        <g id="app-icon" transform="translate(-356.000000, -508.000000)">
            <g id="app-icon-192" transform="translate(356.000000, 508.000000)">
                <circle id="Oval-126" fill="#FFFFFF" cx="96" cy="96" r="96"></circle>
                <path d="M82.3170264,97.8882965 C80.4081568,94.6882965 78.4022261,91.4905773 76.2899903,88.3065431 C75.4811472,87.0863008 74.6584383,85.8934284 73.8334184,84.6982751 C60.0692209,64.7478831 44.2852268,48.419444 28.6814892,36.9947826 C14.3210588,52.5614255 5.5647552,73.2508054 5.5647552,95.9632787 C5.5647552,144.351019 45.311302,183.576679 94.3387449,183.576679 C98.9329733,183.576679 103.444006,183.232274 107.851046,182.568553 C109.526506,159.69186 100.647721,128.633842 82.3170264,97.8882965 Z" id="Fill-1" fill="#27A7D7"></path>
                <path d="M114.556585,10.6580756 C124.050092,27.9376194 132.083059,47.1490235 137.915972,67.475752 C138.706327,70.2309907 139.46664,73.0021953 140.176111,75.7962081 C140.682215,77.7919316 141.142101,79.7716892 141.597364,81.7491661 C149.198177,114.830278 149.530958,145.010178 143.813594,168.714811 C167.515005,152.983949 183.11181,126.270905 183.11181,95.9632787 C183.11181,54.4431076 153.838625,19.6924305 114.556585,10.6580756" id="Fill-4" fill="#6FBF57"></path>
                <path d="M97.6009244,71.6236636 C89.4292987,71.6236636 82.8060298,65.086814 82.8060298,57.0218104 C82.8060298,48.9568068 89.4292987,42.4176764 97.6009244,42.4176764 C105.77255,42.4176764 112.395819,48.9568068 112.395819,57.0218104 C112.395819,65.086814 105.77255,71.6236636 97.6009244,71.6236636 M98.2410659,8.44476123 C96.944606,8.39002138 95.6458352,8.3489665 94.3378205,8.3489665 C72.3973754,8.3489665 52.3288242,16.2200998 36.8383245,29.2367783 C53.9881079,42.1371347 71.050074,60.2514612 85.6462243,82.2614398 C86.6815434,82.0356379 87.7099296,81.8212402 88.7498706,81.5885959 C101.698292,78.6622951 114.122121,75.2707056 125.850345,71.5347113 C119.090728,48.4664291 109.49785,26.9810406 98.2410659,8.44476123" id="Fill-6" fill="#6BC8C6"></path>
            </g>
        </g>
    </g>
</svg>